# xmcd CD database file
#
# Track frame offsets:
#	150
#	23948
#	42926
#	74540
#	92179
#	121147
#	147605
#	181852
#
# Disc length: 2782 seconds
#
# Revision: 0
# Processed by: cddbd v1.5.2PL0 Copyright (c) Steve Scherf et al.
# Submitted via: CDex 1.70beta2
#
DISCID=710adc08
DTITLE=Melvin Taylor - Virturso Guitar
DYEAR=1900
DGENRE=Blues
TTITLE0=Melvin Taylor - I'll Play The Blues For You
TTITLE1=Melvin Taylor - Talking To Anna-Mae (Part 1)
TTITLE2=Melvin Taylor - Dirty Pool
TTITLE3=Melvin Taylor - Kansas City
TTITLE4=Melvin Taylor - Blue Jean Blues
TTITLE5=Melvin Taylor - Eclipse
TTITLE6=Melvin Taylor and the Slack Band  - Texas Flood
TTITLE7=Melvin Taylor and the Slack Band -  Voodoo Child (Slight Return)
EXTD=
EXTT0=
EXTT1=
EXTT2=
EXTT3=
EXTT4=
EXTT5=
EXTT6=
EXTT7=
PLAYORDER=
